# xmcd
#
# Track frame offsets:
#	150
#	18682
#	33149
#	50163
#	73056
#	96229
#	114631
#	131477
#	152400
#	168477
#	184838
#	203422
#	218661
#	237904
#	255317
#	275728
#	297348
#	314385
#
# Disc length: 4400 seconds
#
# Revision: 1
# Processed by: cddbd v1.5.2PL0 Copyright (c) Steve Scherf et al.
# Submitted via: audiograbber 1.83.01
#
DISCID=06112e12
DTITLE=Shania Twain - TT-048
DYEAR=2007
DGENRE=Karaoke
TTITLE0=Any Man Of Mine
TTITLE1=Come on Over
TTITLE2=Don't Be Stupid
TTITLE3=From This Moment On
TTITLE4=From This Moment On (Duet)
TTITLE5=God Bless The Child
TTITLE6=Honey I'm Home
TTITLE7=I'm Outta Here
TTITLE8=I'm Holding On To Love
TTITLE9=Love Gets Me Every Time
TTITLE10=Man I feel Like A Woman
TTITLE11=No One Needs To Know
TTITLE12=Rock This Country
TTITLE13=That Don't Impress Me Much
TTITLE14=Whose Bed Have Your Boots Been Under
TTITLE15=The Woman In Me
TTITLE16=You're Still The One
TTITLE17=You've Got A Way
EXTD=Top Tunes Karaoke Volume 4
EXTT0=
EXTT1=
EXTT2=
EXTT3=
EXTT4=
EXTT5=
EXTT6=
EXTT7=
EXTT8=
EXTT9=
EXTT10=
EXTT11=
EXTT12=
EXTT13=
EXTT14=
EXTT15=
EXTT16=
EXTT17=
PLAYORDER=
